M48
;Layer_Color=9474304
;FILE_FORMAT=2:4
INCH,LZ
;TYPE=PLATED
T01F00S00C0.0079
T02F00S00C0.0280
T03F00S00C0.0350
T04F00S00C0.0394
T05F00S00C0.0400
T06F00S00C0.0402
T07F00S00C0.0421
T08F00S00C0.0433
T09F00S00C0.0949
T10F00S00C0.1260
;TYPE=NON_PLATED
T11F00S00C0.1201
%
T01
X0469Y019901
X047294
Y020334
X0469
Y020767
X047294
Y0212
X0469
Y021633
X047294
Y022066
X0469
Y022499
X047294
X046506
Y022066
Y021633
Y0212
Y020767
Y020334
Y019901
X046698Y035649
Y036082
Y036515
Y036948
Y037381
Y037815
Y038248
X047092
X047485
Y037815
X047092
Y037381
X047485
Y036948
X047092
Y036515
X047485
Y036082
X047092
Y035649
X047485
T02
X0377Y01895
X0403Y0199
X0425
X044425Y020175
X043Y0226
X04295Y0246
X041Y0257
X0385Y02485
X03765Y0248
X0374Y02775
X03775Y02995
X03927Y029793
X0416Y02935
X04405Y02955
X046197Y026903
X03685Y02225
X03435Y0226
X032778Y02855
X0328Y02935
X032309Y029991
X02905Y03075
X02825Y0294
X029105Y026005
X0267Y02665
X0268Y03155
X02755Y03165
X02795Y03245
X02615Y03225
X0264Y0335
X0245Y03545
X031Y0325
X03125Y03185
X033608Y033658
X03475Y03475
X03955Y03465
X039242Y033637
X041152Y034829
X042373Y034755
X042684Y035268
X04195Y0359
X04265Y0334
X04215Y032207
X04485Y0327
X04575Y0331
Y034945
X04625Y03175
X04755Y03385
X04965Y0369
T03
X04975Y0245
Y0255
Y0265
X03235Y0235
X03135
X03035
X0279
X0269
X0259
X04975Y03175
Y03275
Y03375
T04
X0383Y0224
X0393
X0403
Y0234
X0393
X0383
T05
X029234Y034477
Y035658
X030415
Y034477
X031596
Y035658
T06
X0401Y027
Y028
Y029
Y03
Y031
Y032
T07
X025263Y025597
Y026778
Y027959
Y029141
Y030322
Y031503
X034547Y035637
X035728
X036909
X038091
X039272
X040453
T08
X0471Y028
Y029
Y03
Y031
T09
X030415Y037359
T10
X053547Y01962
X022996
Y037903
X053547
T11
X023562Y026444
Y030656
X035394Y037338
X039606
M30
