G04*
G04 #@! TF.GenerationSoftware,Altium Limited,Altium Designer,25.0.2 (28)*
G04*
G04 Layer_Color=8388736*
%FSLAX24Y24*%
%MOIN*%
G70*
G04*
G04 #@! TF.SameCoordinates,F43946D6-5F3C-42AA-9141-687AF705E6AB*
G04*
G04*
G04 #@! TF.FilePolarity,Positive*
G04*
G01*
G75*
%ADD12C,0.0079*%
D12*
X29350Y18512D02*
Y23941D01*
Y18512D02*
X33350D01*
Y23941D01*
X29350D02*
X33350D01*
X24900D02*
X28900D01*
Y18512D02*
Y23941D01*
X24900Y18512D02*
X28900D01*
X24900D02*
Y23941D01*
X46014Y22755D02*
X47786D01*
Y19645D02*
Y22755D01*
X46014Y19645D02*
X47786D01*
X46014D02*
Y22755D01*
X49015Y19773D02*
Y20127D01*
Y19773D02*
X49685D01*
Y20127D01*
X49015D02*
X49685D01*
X49309Y30750D02*
Y34750D01*
X54738D01*
Y30750D02*
Y34750D01*
X49309Y30750D02*
X54738D01*
X36335Y21923D02*
Y22277D01*
X35665D02*
X36335D01*
X35665Y21923D02*
Y22277D01*
Y21923D02*
X36335D01*
X47973Y31365D02*
Y32035D01*
X48327D01*
Y31365D02*
Y32035D01*
X47973Y31365D02*
X48327D01*
X50265Y38377D02*
X50935D01*
Y38023D02*
Y38377D01*
X50265Y38023D02*
X50935D01*
X50265D02*
Y38377D01*
X50215Y37177D02*
X50885D01*
Y36823D02*
Y37177D01*
X50215Y36823D02*
X50885D01*
X50215D02*
Y37177D01*
X38015Y34377D02*
X38685D01*
Y34023D02*
Y34377D01*
X38015Y34023D02*
X38685D01*
X38015D02*
Y34377D01*
X42465Y23877D02*
X43135D01*
Y23523D02*
Y23877D01*
X42465Y23523D02*
X43135D01*
X42465D02*
Y23877D01*
X34223Y23115D02*
Y23785D01*
X34577D01*
Y23115D02*
Y23785D01*
X34223Y23115D02*
X34577D01*
X31065Y31127D02*
X31735D01*
Y30773D02*
Y31127D01*
X31065Y30773D02*
X31735D01*
X31065D02*
Y31127D01*
X29496Y27781D02*
Y29119D01*
X30204D01*
Y27781D02*
Y29119D01*
X29496Y27781D02*
X30204D01*
X40394Y32879D02*
X40906D01*
X40394D02*
Y34021D01*
X40906D01*
Y32879D02*
Y34021D01*
X26565Y36073D02*
X27235D01*
X26565D02*
Y36427D01*
X27235D01*
Y36073D02*
Y36427D01*
X39073Y20465D02*
Y21135D01*
X39427D01*
Y20465D02*
Y21135D01*
X39073Y20465D02*
X39427D01*
X35494Y22879D02*
X36006D01*
X35494D02*
Y24021D01*
X36006D01*
Y22879D02*
Y24021D01*
X43696Y20706D02*
Y21494D01*
X43204Y20706D02*
X43696D01*
X43204D02*
Y21494D01*
X43696D01*
X26269Y27969D02*
Y30331D01*
X28631D01*
Y27969D02*
Y30331D01*
X26269Y27969D02*
X28631D01*
X46206Y35393D02*
Y38504D01*
Y35393D02*
X47978D01*
Y38504D01*
X46206D02*
X47978D01*
X44454Y37294D02*
X44946D01*
X44454Y36506D02*
Y37294D01*
Y36506D02*
X44946D01*
Y37294D01*
X49309Y23500D02*
X54738D01*
Y27500D01*
X49309D02*
X54738D01*
X49309Y23500D02*
Y27500D01*
X26294Y34429D02*
Y35571D01*
Y34429D02*
X26806D01*
Y35571D01*
X26294D02*
X26806D01*
X32781Y24646D02*
Y25354D01*
Y24646D02*
X34119D01*
Y25354D01*
X32781D02*
X34119D01*
X29429Y32006D02*
X30571D01*
X29429Y31494D02*
Y32006D01*
Y31494D02*
X30571D01*
Y32006D01*
X30937Y26788D02*
X31763D01*
Y27812D01*
X30937D02*
X31763D01*
X30937Y26788D02*
Y27812D01*
X35117Y24724D02*
Y25276D01*
Y24724D02*
X35983D01*
Y25276D01*
X35117D02*
X35983D01*
X30717Y28974D02*
Y29526D01*
Y28974D02*
X31583D01*
Y29526D01*
X30717D02*
X31583D01*
M02*
