G04*
G04 #@! TF.GenerationSoftware,Altium Limited,Altium Designer,25.0.2 (28)*
G04*
G04 Layer_Color=0*
%FSLAX24Y24*%
%MOIN*%
G70*
G04*
G04 #@! TF.SameCoordinates,F43946D6-5F3C-42AA-9141-687AF705E6AB*
G04*
G04*
G04 #@! TF.FilePolarity,Positive*
G04*
G01*
G75*
%ADD75C,0.0039*%
D75*
X31350Y21030D02*
Y21423D01*
X31153Y21226D02*
X31547D01*
X26703D02*
X27097D01*
X26900Y21030D02*
Y21423D01*
X46703Y21200D02*
X47097D01*
X46900Y21003D02*
Y21397D01*
X49350Y19753D02*
Y20147D01*
X49153Y19950D02*
X49547D01*
X52024Y32553D02*
Y32947D01*
X51827Y32750D02*
X52220D01*
X36000Y21903D02*
Y22297D01*
X35803Y22100D02*
X36197D01*
X48150Y31503D02*
Y31897D01*
X47953Y31700D02*
X48347D01*
X50403Y38200D02*
X50797D01*
X50600Y38003D02*
Y38397D01*
X50353Y37000D02*
X50747D01*
X50550Y36803D02*
Y37197D01*
X38153Y34200D02*
X38547D01*
X38350Y34003D02*
Y34397D01*
X42603Y23700D02*
X42997D01*
X42800Y23503D02*
Y23897D01*
X34400Y23253D02*
Y23647D01*
X34203Y23450D02*
X34597D01*
X31203Y30950D02*
X31597D01*
X31400Y30753D02*
Y31147D01*
X29850Y28253D02*
Y28647D01*
X29653Y28450D02*
X30047D01*
X40453Y33450D02*
X40847D01*
X40650Y33253D02*
Y33647D01*
X26703Y36250D02*
X27097D01*
X26900Y36053D02*
Y36447D01*
X39250Y20603D02*
Y20997D01*
X39053Y20800D02*
X39447D01*
X35553Y23450D02*
X35947D01*
X35750Y23253D02*
Y23647D01*
X43450Y20903D02*
Y21297D01*
X43253Y21100D02*
X43647D01*
X27084Y29150D02*
X27816D01*
X27450Y28784D02*
Y29516D01*
X47092Y36752D02*
Y37145D01*
X46895Y36948D02*
X47289D01*
X44503Y36900D02*
X44897D01*
X44700Y36703D02*
Y37097D01*
X51827Y25500D02*
X52220D01*
X52024Y25303D02*
Y25697D01*
X26550Y34803D02*
Y35197D01*
X26353Y35000D02*
X26747D01*
X33450Y24803D02*
Y25197D01*
X33253Y25000D02*
X33647D01*
X29803Y31750D02*
X30197D01*
X30000Y31553D02*
Y31947D01*
X31153Y27300D02*
X31547D01*
X31350Y27103D02*
Y27497D01*
X35550Y24803D02*
Y25197D01*
X35353Y25000D02*
X35747D01*
X31150Y29053D02*
Y29447D01*
X30953Y29250D02*
X31347D01*
M02*
