G04*
G04 #@! TF.GenerationSoftware,Altium Limited,Altium Designer,25.0.2 (28)*
G04*
G04 Layer_Color=2752767*
%FSLAX24Y24*%
%MOIN*%
G70*
G04*
G04 #@! TF.SameCoordinates,81A3336F-67A3-4ED7-803A-E09BC6C04D2E*
G04*
G04*
G04 #@! TF.FilePolarity,Positive*
G04*
G01*
G75*
%ADD77C,0.0020*%
%ADD78C,0.0027*%
%ADD79C,0.0013*%
D77*
X47020Y30920D02*
Y31080D01*
X47180D01*
Y30920D01*
X47020D01*
Y29920D02*
Y30080D01*
X47180D01*
Y29920D01*
X47020D01*
Y27920D02*
Y28080D01*
X47180D01*
Y27920D01*
X47020D01*
Y28920D02*
Y29080D01*
X47180D01*
Y28920D01*
X47020D01*
X40020Y31920D02*
X40060Y32000D01*
X40020Y32080D01*
X40100Y32040D01*
X40180Y32080D01*
X40140Y32000D01*
X40180Y31920D01*
X40100Y31960D01*
X40020Y31920D01*
Y30920D02*
X40060Y31000D01*
X40020Y31080D01*
X40100Y31040D01*
X40180Y31080D01*
X40140Y31000D01*
X40180Y30920D01*
X40100Y30960D01*
X40020Y30920D01*
Y26920D02*
X40060Y27000D01*
X40020Y27080D01*
X40100Y27040D01*
X40180Y27080D01*
X40140Y27000D01*
X40180Y26920D01*
X40100Y26960D01*
X40020Y26920D01*
Y27920D02*
X40060Y28000D01*
X40020Y28080D01*
X40100Y28040D01*
X40180Y28080D01*
X40140Y28000D01*
X40180Y27920D01*
X40100Y27960D01*
X40020Y27920D01*
Y28920D02*
X40060Y29000D01*
X40020Y29080D01*
X40100Y29040D01*
X40180Y29080D01*
X40140Y29000D01*
X40180Y28920D01*
X40100Y28960D01*
X40020Y28920D01*
Y29920D02*
X40060Y30000D01*
X40020Y30080D01*
X40100Y30040D01*
X40180Y30080D01*
X40140Y30000D01*
X40180Y29920D01*
X40100Y29960D01*
X40020Y29920D01*
X31516Y35578D02*
X31556D01*
X31596Y35618D01*
X31636Y35578D01*
X31676D01*
Y35618D01*
X31636Y35658D01*
X31676Y35698D01*
Y35738D01*
X31636D01*
X31596Y35698D01*
X31556Y35738D01*
X31516D01*
Y35698D01*
X31556Y35658D01*
X31516Y35618D01*
Y35578D01*
Y34397D02*
X31556D01*
X31596Y34437D01*
X31636Y34397D01*
X31676D01*
Y34437D01*
X31636Y34477D01*
X31676Y34517D01*
Y34557D01*
X31636D01*
X31596Y34517D01*
X31556Y34557D01*
X31516D01*
Y34517D01*
X31556Y34477D01*
X31516Y34437D01*
Y34397D01*
X30335Y35578D02*
X30375D01*
X30415Y35618D01*
X30455Y35578D01*
X30495D01*
Y35618D01*
X30455Y35658D01*
X30495Y35698D01*
Y35738D01*
X30455D01*
X30415Y35698D01*
X30375Y35738D01*
X30335D01*
Y35698D01*
X30375Y35658D01*
X30335Y35618D01*
Y35578D01*
Y34397D02*
X30375D01*
X30415Y34437D01*
X30455Y34397D01*
X30495D01*
Y34437D01*
X30455Y34477D01*
X30495Y34517D01*
Y34557D01*
X30455D01*
X30415Y34517D01*
X30375Y34557D01*
X30335D01*
Y34517D01*
X30375Y34477D01*
X30335Y34437D01*
Y34397D01*
X29154Y35578D02*
X29194D01*
X29234Y35618D01*
X29274Y35578D01*
X29314D01*
Y35618D01*
X29274Y35658D01*
X29314Y35698D01*
Y35738D01*
X29274D01*
X29234Y35698D01*
X29194Y35738D01*
X29154D01*
Y35698D01*
X29194Y35658D01*
X29154Y35618D01*
Y35578D01*
Y34397D02*
X29194D01*
X29234Y34437D01*
X29274Y34397D01*
X29314D01*
Y34437D01*
X29274Y34477D01*
X29314Y34517D01*
Y34557D01*
X29274D01*
X29234Y34517D01*
X29194Y34557D01*
X29154D01*
Y34517D01*
X29194Y34477D01*
X29154Y34437D01*
Y34397D01*
X30335Y37359D02*
X30415Y37439D01*
X30495Y37359D01*
X30415Y37279D01*
X30335Y37359D01*
X30350Y23420D02*
X30390Y23460D01*
X30430D01*
X30390Y23500D01*
X30430Y23540D01*
X30390D01*
X30350Y23580D01*
X30310Y23540D01*
X30270D01*
X30310Y23500D01*
X30270Y23460D01*
X30310D01*
X30350Y23420D01*
X31350D02*
X31390Y23460D01*
X31430D01*
X31390Y23500D01*
X31430Y23540D01*
X31390D01*
X31350Y23580D01*
X31310Y23540D01*
X31270D01*
X31310Y23500D01*
X31270Y23460D01*
X31310D01*
X31350Y23420D01*
X32350D02*
X32390Y23460D01*
X32430D01*
X32390Y23500D01*
X32430Y23540D01*
X32390D01*
X32350Y23580D01*
X32310Y23540D01*
X32270D01*
X32310Y23500D01*
X32270Y23460D01*
X32310D01*
X32350Y23420D01*
X23562Y26364D02*
X23482Y26524D01*
X23642D01*
X23562Y26364D01*
Y30576D02*
X23482Y30736D01*
X23642D01*
X23562Y30576D01*
X27900Y23420D02*
X27940Y23460D01*
X27980D01*
X27940Y23500D01*
X27980Y23540D01*
X27940D01*
X27900Y23580D01*
X27860Y23540D01*
X27820D01*
X27860Y23500D01*
X27820Y23460D01*
X27860D01*
X27900Y23420D01*
X26900D02*
X26940Y23460D01*
X26980D01*
X26940Y23500D01*
X26980Y23540D01*
X26940D01*
X26900Y23580D01*
X26860Y23540D01*
X26820D01*
X26860Y23500D01*
X26820Y23460D01*
X26860D01*
X26900Y23420D01*
X25900D02*
X25940Y23460D01*
X25980D01*
X25940Y23500D01*
X25980Y23540D01*
X25940D01*
X25900Y23580D01*
X25860Y23540D01*
X25820D01*
X25860Y23500D01*
X25820Y23460D01*
X25860D01*
X25900Y23420D01*
X39606Y37258D02*
X39526Y37418D01*
X39686D01*
X39606Y37258D01*
X35394D02*
X35314Y37418D01*
X35474D01*
X35394Y37258D01*
X49750Y33670D02*
X49790Y33710D01*
X49830D01*
X49790Y33750D01*
X49830Y33790D01*
X49790D01*
X49750Y33830D01*
X49710Y33790D01*
X49670D01*
X49710Y33750D01*
X49670Y33710D01*
X49710D01*
X49750Y33670D01*
Y32670D02*
X49790Y32710D01*
X49830D01*
X49790Y32750D01*
X49830Y32790D01*
X49790D01*
X49750Y32830D01*
X49710Y32790D01*
X49670D01*
X49710Y32750D01*
X49670Y32710D01*
X49710D01*
X49750Y32670D01*
Y31670D02*
X49790Y31710D01*
X49830D01*
X49790Y31750D01*
X49830Y31790D01*
X49790D01*
X49750Y31830D01*
X49710Y31790D01*
X49670D01*
X49710Y31750D01*
X49670Y31710D01*
X49710D01*
X49750Y31670D01*
Y24420D02*
X49790Y24460D01*
X49830D01*
X49790Y24500D01*
X49830Y24540D01*
X49790D01*
X49750Y24580D01*
X49710Y24540D01*
X49670D01*
X49710Y24500D01*
X49670Y24460D01*
X49710D01*
X49750Y24420D01*
Y25420D02*
X49790Y25460D01*
X49830D01*
X49790Y25500D01*
X49830Y25540D01*
X49790D01*
X49750Y25580D01*
X49710Y25540D01*
X49670D01*
X49710Y25500D01*
X49670Y25460D01*
X49710D01*
X49750Y25420D01*
Y26420D02*
X49790Y26460D01*
X49830D01*
X49790Y26500D01*
X49830Y26540D01*
X49790D01*
X49750Y26580D01*
X49710Y26540D01*
X49670D01*
X49710Y26500D01*
X49670Y26460D01*
X49710D01*
X49750Y26420D01*
X40260Y23360D02*
Y23320D01*
X40340D01*
Y23360D01*
X40380D01*
Y23440D01*
X40340D01*
Y23480D01*
X40260D01*
Y23440D01*
X40220D01*
Y23360D01*
X40260D01*
Y22360D02*
Y22320D01*
X40340D01*
Y22360D01*
X40380D01*
Y22440D01*
X40340D01*
Y22480D01*
X40260D01*
Y22440D01*
X40220D01*
Y22360D01*
X40260D01*
X38260D02*
Y22320D01*
X38340D01*
Y22360D01*
X38380D01*
Y22440D01*
X38340D01*
Y22480D01*
X38260D01*
Y22440D01*
X38220D01*
Y22360D01*
X38260D01*
X39260D02*
Y22320D01*
X39340D01*
Y22360D01*
X39380D01*
Y22440D01*
X39340D01*
Y22480D01*
X39260D01*
Y22440D01*
X39220D01*
Y22360D01*
X39260D01*
X38260Y23360D02*
Y23320D01*
X38340D01*
Y23360D01*
X38380D01*
Y23440D01*
X38340D01*
Y23480D01*
X38260D01*
Y23440D01*
X38220D01*
Y23360D01*
X38260D01*
X39260D02*
Y23320D01*
X39340D01*
Y23360D01*
X39380D01*
Y23440D01*
X39340D01*
Y23480D01*
X39260D01*
Y23440D01*
X39220D01*
Y23360D01*
X39260D01*
X42373Y34675D02*
X42293Y34835D01*
X42453D01*
X42373Y34675D01*
Y34715D02*
X42333Y34795D01*
X42413D01*
X42373Y34715D01*
X42684Y35188D02*
X42604Y35348D01*
X42764D01*
X42684Y35188D01*
Y35228D02*
X42644Y35308D01*
X42724D01*
X42684Y35228D01*
X41152Y34749D02*
X41072Y34909D01*
X41232D01*
X41152Y34749D01*
Y34789D02*
X41112Y34869D01*
X41192D01*
X41152Y34789D01*
X41950Y35820D02*
X41870Y35980D01*
X42030D01*
X41950Y35820D01*
Y35860D02*
X41910Y35940D01*
X41990D01*
X41950Y35860D01*
X39270Y29713D02*
X39190Y29873D01*
X39350D01*
X39270Y29713D01*
Y29753D02*
X39230Y29833D01*
X39310D01*
X39270Y29753D01*
X39550Y34570D02*
X39470Y34730D01*
X39630D01*
X39550Y34570D01*
Y34610D02*
X39510Y34690D01*
X39590D01*
X39550Y34610D01*
X42650Y33320D02*
X42570Y33480D01*
X42730D01*
X42650Y33320D01*
Y33360D02*
X42610Y33440D01*
X42690D01*
X42650Y33360D01*
X46197Y26823D02*
X46117Y26983D01*
X46277D01*
X46197Y26823D01*
Y26863D02*
X46157Y26943D01*
X46237D01*
X46197Y26863D01*
X42950Y24520D02*
X42870Y24680D01*
X43030D01*
X42950Y24520D01*
Y24560D02*
X42910Y24640D01*
X42990D01*
X42950Y24560D01*
X39242Y33557D02*
X39162Y33717D01*
X39322D01*
X39242Y33557D01*
Y33597D02*
X39202Y33677D01*
X39282D01*
X39242Y33597D01*
X45750Y34865D02*
X45670Y35025D01*
X45830D01*
X45750Y34865D01*
Y34905D02*
X45710Y34985D01*
X45790D01*
X45750Y34905D01*
X36850Y22170D02*
X36770Y22330D01*
X36930D01*
X36850Y22170D01*
Y22210D02*
X36810Y22290D01*
X36890D01*
X36850Y22210D01*
X46250Y31670D02*
X46170Y31830D01*
X46330D01*
X46250Y31670D01*
Y31710D02*
X46210Y31790D01*
X46290D01*
X46250Y31710D01*
X45750Y33020D02*
X45670Y33180D01*
X45830D01*
X45750Y33020D01*
Y33060D02*
X45710Y33140D01*
X45790D01*
X45750Y33060D01*
X34350Y22520D02*
X34270Y22680D01*
X34430D01*
X34350Y22520D01*
Y22560D02*
X34310Y22640D01*
X34390D01*
X34350Y22560D01*
X29105Y25925D02*
X29025Y26085D01*
X29185D01*
X29105Y25925D01*
Y25965D02*
X29065Y26045D01*
X29145D01*
X29105Y25965D01*
X26700Y26570D02*
X26620Y26730D01*
X26780D01*
X26700Y26570D01*
Y26610D02*
X26660Y26690D01*
X26740D01*
X26700Y26610D01*
X32778Y28470D02*
X32698Y28630D01*
X32858D01*
X32778Y28470D01*
Y28510D02*
X32738Y28590D01*
X32818D01*
X32778Y28510D01*
X32800Y29270D02*
X32720Y29430D01*
X32880D01*
X32800Y29270D01*
Y29310D02*
X32760Y29390D01*
X32840D01*
X32800Y29310D01*
X29050Y30670D02*
X28970Y30830D01*
X29130D01*
X29050Y30670D01*
Y30710D02*
X29010Y30790D01*
X29090D01*
X29050Y30710D01*
X32309Y29911D02*
X32229Y30071D01*
X32389D01*
X32309Y29911D01*
Y29951D02*
X32269Y30031D01*
X32349D01*
X32309Y29951D01*
X37400Y27670D02*
X37320Y27830D01*
X37480D01*
X37400Y27670D01*
Y27710D02*
X37360Y27790D01*
X37440D01*
X37400Y27710D01*
X44425Y20095D02*
X44345Y20255D01*
X44505D01*
X44425Y20095D01*
Y20135D02*
X44385Y20215D01*
X44465D01*
X44425Y20135D01*
X26400Y33420D02*
X26320Y33580D01*
X26480D01*
X26400Y33420D01*
Y33460D02*
X26360Y33540D01*
X26440D01*
X26400Y33460D01*
X44850Y32620D02*
X44770Y32780D01*
X44930D01*
X44850Y32620D01*
Y32660D02*
X44810Y32740D01*
X44890D01*
X44850Y32660D01*
X34750Y34670D02*
X34670Y34830D01*
X34830D01*
X34750Y34670D01*
Y34710D02*
X34710Y34790D01*
X34790D01*
X34750Y34710D01*
X41600Y29270D02*
X41520Y29430D01*
X41680D01*
X41600Y29270D01*
Y29310D02*
X41560Y29390D01*
X41640D01*
X41600Y29310D01*
X44050Y29470D02*
X43970Y29630D01*
X44130D01*
X44050Y29470D01*
Y29510D02*
X44010Y29590D01*
X44090D01*
X44050Y29510D01*
X47550Y33770D02*
X47470Y33930D01*
X47630D01*
X47550Y33770D01*
Y33810D02*
X47510Y33890D01*
X47590D01*
X47550Y33810D01*
X26150Y32170D02*
X26070Y32330D01*
X26230D01*
X26150Y32170D01*
Y32210D02*
X26110Y32290D01*
X26190D01*
X26150Y32210D01*
X26800Y31470D02*
X26720Y31630D01*
X26880D01*
X26800Y31470D01*
Y31510D02*
X26760Y31590D01*
X26840D01*
X26800Y31510D01*
X27550Y31570D02*
X27470Y31730D01*
X27630D01*
X27550Y31570D01*
Y31610D02*
X27510Y31690D01*
X27590D01*
X27550Y31610D01*
X42500Y19820D02*
X42420Y19980D01*
X42580D01*
X42500Y19820D01*
Y19860D02*
X42460Y19940D01*
X42540D01*
X42500Y19860D01*
X24500Y35370D02*
X24420Y35530D01*
X24580D01*
X24500Y35370D01*
Y35410D02*
X24460Y35490D01*
X24540D01*
X24500Y35410D01*
X37700Y18870D02*
X37620Y19030D01*
X37780D01*
X37700Y18870D01*
Y18910D02*
X37660Y18990D01*
X37740D01*
X37700Y18910D01*
X40300Y19820D02*
X40220Y19980D01*
X40380D01*
X40300Y19820D01*
Y19860D02*
X40260Y19940D01*
X40340D01*
X40300Y19860D01*
X43000Y22520D02*
X42920Y22680D01*
X43080D01*
X43000Y22520D01*
Y22560D02*
X42960Y22640D01*
X43040D01*
X43000Y22560D01*
X27950Y32370D02*
X27870Y32530D01*
X28030D01*
X27950Y32370D01*
Y32410D02*
X27910Y32490D01*
X27990D01*
X27950Y32410D01*
X46426Y22419D02*
Y22579D01*
X46586D01*
Y22419D01*
X46426D01*
X46466Y22459D02*
Y22539D01*
X46546D01*
Y22459D01*
X46466D01*
X46426Y21986D02*
Y22146D01*
X46586D01*
Y21986D01*
X46426D01*
X46466Y22026D02*
Y22106D01*
X46546D01*
Y22026D01*
X46466D01*
X46426Y21553D02*
Y21713D01*
X46586D01*
Y21553D01*
X46426D01*
X46466Y21593D02*
Y21673D01*
X46546D01*
Y21593D01*
X46466D01*
X46426Y21120D02*
Y21280D01*
X46586D01*
Y21120D01*
X46426D01*
X46466Y21160D02*
Y21240D01*
X46546D01*
Y21160D01*
X46466D01*
X46426Y20687D02*
Y20847D01*
X46586D01*
Y20687D01*
X46426D01*
X46466Y20727D02*
Y20807D01*
X46546D01*
Y20727D01*
X46466D01*
X46426Y20254D02*
Y20414D01*
X46586D01*
Y20254D01*
X46426D01*
X46466Y20294D02*
Y20374D01*
X46546D01*
Y20294D01*
X46466D01*
X46426Y19821D02*
Y19981D01*
X46586D01*
Y19821D01*
X46426D01*
X46466Y19861D02*
Y19941D01*
X46546D01*
Y19861D01*
X46466D01*
X47214Y22419D02*
Y22579D01*
X47374D01*
Y22419D01*
X47214D01*
X47254Y22459D02*
Y22539D01*
X47334D01*
Y22459D01*
X47254D01*
X47214Y21986D02*
Y22146D01*
X47374D01*
Y21986D01*
X47214D01*
X47254Y22026D02*
Y22106D01*
X47334D01*
Y22026D01*
X47254D01*
X47214Y21553D02*
Y21713D01*
X47374D01*
Y21553D01*
X47214D01*
X47254Y21593D02*
Y21673D01*
X47334D01*
Y21593D01*
X47254D01*
X47214Y21120D02*
Y21280D01*
X47374D01*
Y21120D01*
X47214D01*
X47254Y21160D02*
Y21240D01*
X47334D01*
Y21160D01*
X47254D01*
X47214Y20687D02*
Y20847D01*
X47374D01*
Y20687D01*
X47214D01*
X47254Y20727D02*
Y20807D01*
X47334D01*
Y20727D01*
X47254D01*
X47214Y20254D02*
Y20414D01*
X47374D01*
Y20254D01*
X47214D01*
X47254Y20294D02*
Y20374D01*
X47334D01*
Y20294D01*
X47254D01*
X47214Y19821D02*
Y19981D01*
X47374D01*
Y19821D01*
X47214D01*
X47254Y19861D02*
Y19941D01*
X47334D01*
Y19861D01*
X47254D01*
X46820Y22419D02*
Y22579D01*
X46980D01*
Y22419D01*
X46820D01*
X46860Y22459D02*
Y22539D01*
X46940D01*
Y22459D01*
X46860D01*
X46820Y21986D02*
Y22146D01*
X46980D01*
Y21986D01*
X46820D01*
X46860Y22026D02*
Y22106D01*
X46940D01*
Y22026D01*
X46860D01*
X46820Y21553D02*
Y21713D01*
X46980D01*
Y21553D01*
X46820D01*
X46860Y21593D02*
Y21673D01*
X46940D01*
Y21593D01*
X46860D01*
X46820Y21120D02*
Y21280D01*
X46980D01*
Y21120D01*
X46820D01*
X46860Y21160D02*
Y21240D01*
X46940D01*
Y21160D01*
X46860D01*
X46820Y20687D02*
Y20847D01*
X46980D01*
Y20687D01*
X46820D01*
X46860Y20727D02*
Y20807D01*
X46940D01*
Y20727D01*
X46860D01*
X46820Y20254D02*
Y20414D01*
X46980D01*
Y20254D01*
X46820D01*
X46860Y20294D02*
Y20374D01*
X46940D01*
Y20294D01*
X46860D01*
X46820Y19821D02*
Y19981D01*
X46980D01*
Y19821D01*
X46820D01*
X46860Y19861D02*
Y19941D01*
X46940D01*
Y19861D01*
X46860D01*
X37750Y29870D02*
X37670Y30030D01*
X37830D01*
X37750Y29870D01*
Y29910D02*
X37710Y29990D01*
X37790D01*
X37750Y29910D01*
X42150Y32127D02*
X42070Y32287D01*
X42230D01*
X42150Y32127D01*
Y32167D02*
X42110Y32247D01*
X42190D01*
X42150Y32167D01*
X41000Y25620D02*
X40920Y25780D01*
X41080D01*
X41000Y25620D01*
Y25660D02*
X40960Y25740D01*
X41040D01*
X41000Y25660D01*
X49650Y36820D02*
X49570Y36980D01*
X49730D01*
X49650Y36820D01*
Y36860D02*
X49610Y36940D01*
X49690D01*
X49650Y36860D01*
X33608Y33578D02*
X33528Y33738D01*
X33688D01*
X33608Y33578D01*
Y33618D02*
X33568Y33698D01*
X33648D01*
X33608Y33618D01*
X31000Y32420D02*
X30920Y32580D01*
X31080D01*
X31000Y32420D01*
Y32460D02*
X30960Y32540D01*
X31040D01*
X31000Y32460D01*
X31250Y31770D02*
X31170Y31930D01*
X31330D01*
X31250Y31770D01*
Y31810D02*
X31210Y31890D01*
X31290D01*
X31250Y31810D01*
X38500Y24770D02*
X38420Y24930D01*
X38580D01*
X38500Y24770D01*
Y24810D02*
X38460Y24890D01*
X38540D01*
X38500Y24810D01*
X37650Y24720D02*
X37570Y24880D01*
X37730D01*
X37650Y24720D01*
Y24760D02*
X37610Y24840D01*
X37690D01*
X37650Y24760D01*
X28250Y29320D02*
X28170Y29480D01*
X28330D01*
X28250Y29320D01*
Y29360D02*
X28210Y29440D01*
X28290D01*
X28250Y29360D01*
X47012Y35569D02*
Y35729D01*
X47172D01*
Y35569D01*
X47012D01*
X47052Y35609D02*
Y35689D01*
X47132D01*
Y35609D01*
X47052D01*
X47012Y36002D02*
Y36162D01*
X47172D01*
Y36002D01*
X47012D01*
X47052Y36042D02*
Y36122D01*
X47132D01*
Y36042D01*
X47052D01*
X47012Y36435D02*
Y36595D01*
X47172D01*
Y36435D01*
X47012D01*
X47052Y36475D02*
Y36555D01*
X47132D01*
Y36475D01*
X47052D01*
X47012Y36868D02*
Y37028D01*
X47172D01*
Y36868D01*
X47012D01*
X47052Y36908D02*
Y36988D01*
X47132D01*
Y36908D01*
X47052D01*
X47012Y37301D02*
Y37462D01*
X47172D01*
Y37301D01*
X47012D01*
X47052Y37341D02*
Y37422D01*
X47132D01*
Y37341D01*
X47052D01*
X47012Y37735D02*
Y37895D01*
X47172D01*
Y37735D01*
X47012D01*
X47052Y37775D02*
Y37855D01*
X47132D01*
Y37775D01*
X47052D01*
X47012Y38168D02*
Y38328D01*
X47172D01*
Y38168D01*
X47012D01*
X47052Y38208D02*
Y38288D01*
X47132D01*
Y38208D01*
X47052D01*
X47405Y35569D02*
Y35729D01*
X47565D01*
Y35569D01*
X47405D01*
X47445Y35609D02*
Y35689D01*
X47525D01*
Y35609D01*
X47445D01*
X47405Y36002D02*
Y36162D01*
X47565D01*
Y36002D01*
X47405D01*
X47445Y36042D02*
Y36122D01*
X47525D01*
Y36042D01*
X47445D01*
X47405Y36435D02*
Y36595D01*
X47565D01*
Y36435D01*
X47405D01*
X47445Y36475D02*
Y36555D01*
X47525D01*
Y36475D01*
X47445D01*
X47405Y36868D02*
Y37028D01*
X47565D01*
Y36868D01*
X47405D01*
X47445Y36908D02*
Y36988D01*
X47525D01*
Y36908D01*
X47445D01*
X47405Y37301D02*
Y37462D01*
X47565D01*
Y37301D01*
X47405D01*
X47445Y37341D02*
Y37422D01*
X47525D01*
Y37341D01*
X47445D01*
X47405Y37735D02*
Y37895D01*
X47565D01*
Y37735D01*
X47405D01*
X47445Y37775D02*
Y37855D01*
X47525D01*
Y37775D01*
X47445D01*
X47405Y38168D02*
Y38328D01*
X47565D01*
Y38168D01*
X47405D01*
X47445Y38208D02*
Y38288D01*
X47525D01*
Y38208D01*
X47445D01*
X46618Y35569D02*
Y35729D01*
X46778D01*
Y35569D01*
X46618D01*
X46658Y35609D02*
Y35689D01*
X46738D01*
Y35609D01*
X46658D01*
X46618Y36002D02*
Y36162D01*
X46778D01*
Y36002D01*
X46618D01*
X46658Y36042D02*
Y36122D01*
X46738D01*
Y36042D01*
X46658D01*
X46618Y36435D02*
Y36595D01*
X46778D01*
Y36435D01*
X46618D01*
X46658Y36475D02*
Y36555D01*
X46738D01*
Y36475D01*
X46658D01*
X46618Y36868D02*
Y37028D01*
X46778D01*
Y36868D01*
X46618D01*
X46658Y36908D02*
Y36988D01*
X46738D01*
Y36908D01*
X46658D01*
X46618Y37301D02*
Y37462D01*
X46778D01*
Y37301D01*
X46618D01*
X46658Y37341D02*
Y37422D01*
X46738D01*
Y37341D01*
X46658D01*
X46618Y37735D02*
Y37895D01*
X46778D01*
Y37735D01*
X46618D01*
X46658Y37775D02*
Y37855D01*
X46738D01*
Y37775D01*
X46658D01*
X46618Y38168D02*
Y38328D01*
X46778D01*
Y38168D01*
X46618D01*
X46658Y38208D02*
Y38288D01*
X46738D01*
Y38208D01*
X46658D01*
D78*
X23077Y37903D02*
G03*
X23077Y37903I-80J0D01*
G01*
Y19620D02*
G03*
X23077Y19620I-80J0D01*
G01*
X25343Y31503D02*
G03*
X25343Y31503I-80J0D01*
G01*
Y30322D02*
G03*
X25343Y30322I-80J0D01*
G01*
Y29141D02*
G03*
X25343Y29141I-80J0D01*
G01*
Y27959D02*
G03*
X25343Y27959I-80J0D01*
G01*
Y26778D02*
G03*
X25343Y26778I-80J0D01*
G01*
Y25597D02*
G03*
X25343Y25597I-80J0D01*
G01*
X53627Y19620D02*
G03*
X53627Y19620I-80J0D01*
G01*
X34627Y35637D02*
G03*
X34627Y35637I-80J0D01*
G01*
X35808D02*
G03*
X35808Y35637I-80J0D01*
G01*
X36989D02*
G03*
X36989Y35637I-80J0D01*
G01*
X38171D02*
G03*
X38171Y35637I-80J0D01*
G01*
X39352D02*
G03*
X39352Y35637I-80J0D01*
G01*
X40533D02*
G03*
X40533Y35637I-80J0D01*
G01*
X53627Y37903D02*
G03*
X53627Y37903I-80J0D01*
G01*
D79*
X23036D02*
G03*
X23036Y37903I-40J0D01*
G01*
Y19620D02*
G03*
X23036Y19620I-40J0D01*
G01*
X53587D02*
G03*
X53587Y19620I-40J0D01*
G01*
Y37903D02*
G03*
X53587Y37903I-40J0D01*
G01*
M02*
