G04*
G04 #@! TF.GenerationSoftware,Altium Limited,Altium Designer,25.0.2 (28)*
G04*
G04 Layer_Color=16711935*
%FSLAX24Y24*%
%MOIN*%
G70*
G04*
G04 #@! TF.SameCoordinates,81A3336F-67A3-4ED7-803A-E09BC6C04D2E*
G04*
G04*
G04 #@! TF.FilePolarity,Positive*
G04*
G01*
G75*
%ADD12C,0.0079*%
%ADD15C,0.0030*%
D12*
X29311Y18472D02*
Y23990D01*
Y18472D02*
X33389D01*
Y23990D01*
X29311D02*
X33389D01*
X24861D02*
X28939D01*
Y18472D02*
Y23990D01*
X24861Y18472D02*
X28939D01*
X24861D02*
Y23990D01*
X45424Y22854D02*
X48376D01*
Y19546D02*
Y22854D01*
X45424Y19546D02*
X48376D01*
X45424D02*
Y22854D01*
X48956Y19714D02*
Y20186D01*
Y19714D02*
X49744D01*
Y20186D01*
X48956D02*
X49744D01*
X49260Y30711D02*
Y34789D01*
X54778D01*
Y30711D02*
Y34789D01*
X49260Y30711D02*
X54778D01*
X36394Y21864D02*
Y22336D01*
X35606D02*
X36394D01*
X35606Y21864D02*
Y22336D01*
Y21864D02*
X36394D01*
X47914Y31306D02*
Y32094D01*
X48386D01*
Y31306D02*
Y32094D01*
X47914Y31306D02*
X48386D01*
X50206Y38436D02*
X50994D01*
Y37964D02*
Y38436D01*
X50206Y37964D02*
X50994D01*
X50206D02*
Y38436D01*
X50156Y37236D02*
X50944D01*
Y36764D02*
Y37236D01*
X50156Y36764D02*
X50944D01*
X50156D02*
Y37236D01*
X37956Y34436D02*
X38744D01*
Y33964D02*
Y34436D01*
X37956Y33964D02*
X38744D01*
X37956D02*
Y34436D01*
X42406Y23936D02*
X43194D01*
Y23464D02*
Y23936D01*
X42406Y23464D02*
X43194D01*
X42406D02*
Y23936D01*
X34164Y23056D02*
Y23844D01*
X34636D01*
Y23056D02*
Y23844D01*
X34164Y23056D02*
X34636D01*
X31006Y31186D02*
X31794D01*
Y30714D02*
Y31186D01*
X31006Y30714D02*
X31794D01*
X31006D02*
Y31186D01*
X29456Y27328D02*
Y29572D01*
X30244D01*
Y27328D02*
Y29572D01*
X29456Y27328D02*
X30244D01*
X39893Y32781D02*
X41407D01*
X39893D02*
Y34119D01*
X41407D01*
Y32781D02*
Y34119D01*
X26506Y36014D02*
X27294D01*
X26506D02*
Y36486D01*
X27294D01*
Y36014D02*
Y36486D01*
X39014Y20406D02*
Y21194D01*
X39486D01*
Y20406D02*
Y21194D01*
X39014Y20406D02*
X39486D01*
X34993Y22781D02*
X36507D01*
X34993D02*
Y24119D01*
X36507D01*
Y22781D02*
Y24119D01*
X43953Y20252D02*
Y21948D01*
X42947Y20252D02*
X43953D01*
X42947D02*
Y21948D01*
X43953D01*
X26230Y27241D02*
Y31059D01*
X28670D01*
Y27241D02*
Y31059D01*
X26230Y27241D02*
X28670D01*
X45615Y35295D02*
Y38602D01*
Y35295D02*
X48568D01*
Y38602D01*
X45615D02*
X48568D01*
X44197Y37748D02*
X45203D01*
X44197Y36052D02*
Y37748D01*
Y36052D02*
X45203D01*
Y37748D01*
X49260Y23461D02*
X54778D01*
Y27539D01*
X49260D02*
X54778D01*
X49260Y23461D02*
Y27539D01*
X25793Y34331D02*
Y35669D01*
Y34331D02*
X27307D01*
Y35669D01*
X25793D02*
X27307D01*
X32328Y24606D02*
Y25394D01*
Y24606D02*
X34572D01*
Y25394D01*
X32328D02*
X34572D01*
X29331Y32507D02*
X30669D01*
X29331Y30993D02*
Y32507D01*
Y30993D02*
X30669D01*
Y32507D01*
X30878Y26729D02*
X31822D01*
Y27871D01*
X30878D02*
X31822D01*
X30878Y26729D02*
Y27871D01*
X34940Y24675D02*
Y25325D01*
Y24675D02*
X36160D01*
Y25325D01*
X34940D02*
X36160D01*
X30540Y28925D02*
Y29575D01*
Y28925D02*
X31760D01*
Y29575D01*
X30540D02*
X31760D01*
D15*
X46930Y21230D02*
Y21430D01*
X47030D01*
X47063Y21397D01*
Y21330D01*
X47030Y21297D01*
X46930D01*
X46997D02*
X47063Y21230D01*
X47163D02*
X47230D01*
X47263Y21263D01*
Y21330D01*
X47230Y21363D01*
X47163D01*
X47130Y21330D01*
Y21263D01*
X47163Y21230D01*
X47330D02*
X47397D01*
X47363D01*
Y21430D01*
X47330D01*
X47496Y21230D02*
X47563D01*
X47530D01*
Y21430D01*
X47496D01*
X47863Y21230D02*
Y21430D01*
X47930Y21363D01*
X47996Y21430D01*
Y21230D01*
X48196Y21397D02*
X48163Y21430D01*
X48096D01*
X48063Y21397D01*
Y21263D01*
X48096Y21230D01*
X48163D01*
X48196Y21263D01*
X29694Y28480D02*
X29894D01*
Y28580D01*
X29861Y28613D01*
X29727D01*
X29694Y28580D01*
Y28480D01*
X29894Y28680D02*
Y28747D01*
Y28713D01*
X29694D01*
X29727Y28680D01*
X40487Y33461D02*
Y33328D01*
X40520Y33294D01*
X40587D01*
X40620Y33328D01*
Y33461D01*
X40587Y33494D01*
X40520D01*
X40553Y33427D02*
X40487Y33494D01*
X40520D02*
X40487Y33461D01*
X40320Y33494D02*
Y33294D01*
X40420Y33394D01*
X40287D01*
X35587Y23461D02*
Y23328D01*
X35620Y23294D01*
X35687D01*
X35720Y23328D01*
Y23461D01*
X35687Y23494D01*
X35620D01*
X35653Y23427D02*
X35587Y23494D01*
X35620D02*
X35587Y23461D01*
X35387Y23494D02*
X35520D01*
X35387Y23361D01*
Y23328D01*
X35420Y23294D01*
X35487D01*
X35520Y23328D01*
X43680Y21070D02*
X43480D01*
Y20937D01*
Y20870D02*
Y20803D01*
Y20837D01*
X43680D01*
X43647Y20870D01*
X27253Y29313D02*
X27220Y29280D01*
Y29213D01*
X27253Y29180D01*
X27287D01*
X27320Y29213D01*
Y29280D01*
X27353Y29313D01*
X27387D01*
X27420Y29280D01*
Y29213D01*
X27387Y29180D01*
X27220Y29380D02*
X27420D01*
X27353Y29447D01*
X27420Y29513D01*
X27220D01*
X27420Y29580D02*
Y29647D01*
Y29613D01*
X27220D01*
X27253Y29580D01*
X47122Y36978D02*
Y37178D01*
X47222D01*
X47255Y37145D01*
Y37078D01*
X47222Y37045D01*
X47122D01*
X47322Y36978D02*
X47388D01*
X47355D01*
Y37112D01*
X47322D01*
X47522Y37145D02*
Y37112D01*
X47488D01*
X47555D01*
X47522D01*
Y37012D01*
X47555Y36978D01*
X47788Y37112D02*
X47688D01*
X47655Y37078D01*
Y37012D01*
X47688Y36978D01*
X47788D01*
X47855Y37178D02*
Y36978D01*
Y37078D01*
X47888Y37112D01*
X47955D01*
X47988Y37078D01*
Y36978D01*
X48255D02*
Y37178D01*
X48321Y37112D01*
X48388Y37178D01*
Y36978D01*
X48588Y37145D02*
X48555Y37178D01*
X48488D01*
X48455Y37145D01*
Y37012D01*
X48488Y36978D01*
X48555D01*
X48588Y37012D01*
X31120Y27330D02*
X31153D01*
X31220Y27397D01*
X31153Y27463D01*
X31120D01*
X31220Y27397D02*
X31320D01*
Y27530D02*
Y27597D01*
Y27563D01*
X31120D01*
X31153Y27530D01*
X33480Y25156D02*
Y24956D01*
X33580D01*
X33613Y24989D01*
Y25122D01*
X33580Y25156D01*
X33480D01*
X33813Y24956D02*
X33680D01*
X33813Y25089D01*
Y25122D01*
X33780Y25156D01*
X33713D01*
X33680Y25122D01*
X44930Y36870D02*
X44730D01*
Y36737D01*
Y36537D02*
Y36670D01*
X44863Y36537D01*
X44897D01*
X44930Y36570D01*
Y36637D01*
X44897Y36670D01*
X35580Y25030D02*
Y25230D01*
X35680D01*
X35713Y25197D01*
Y25130D01*
X35680Y25097D01*
X35580D01*
X35647D02*
X35713Y25030D01*
X35780D02*
X35847D01*
X35813D01*
Y25230D01*
X35780Y25197D01*
X35947Y25030D02*
X36013D01*
X35980D01*
Y25230D01*
X35947Y25197D01*
X31180Y29280D02*
Y29480D01*
X31280D01*
X31313Y29447D01*
Y29380D01*
X31280Y29347D01*
X31180D01*
X31247D02*
X31313Y29280D01*
X31380D02*
X31447D01*
X31413D01*
Y29480D01*
X31380Y29447D01*
X31547D02*
X31580Y29480D01*
X31647D01*
X31680Y29447D01*
Y29313D01*
X31647Y29280D01*
X31580D01*
X31547Y29313D01*
Y29447D01*
X29989Y31587D02*
X30122D01*
X30156Y31620D01*
Y31687D01*
X30122Y31720D01*
X29989D01*
X29956Y31687D01*
Y31620D01*
X30023Y31653D02*
X29956Y31587D01*
Y31620D02*
X29989Y31587D01*
X30122Y31520D02*
X30156Y31487D01*
Y31420D01*
X30122Y31387D01*
X30089D01*
X30056Y31420D01*
Y31453D01*
Y31420D01*
X30023Y31387D01*
X29989D01*
X29956Y31420D01*
Y31487D01*
X29989Y31520D01*
X26713Y34989D02*
Y35122D01*
X26680Y35156D01*
X26613D01*
X26580Y35122D01*
Y34989D01*
X26613Y34956D01*
X26680D01*
X26647Y35023D02*
X26713Y34956D01*
X26680D02*
X26713Y34989D01*
X26780Y34956D02*
X26847D01*
X26813D01*
Y35156D01*
X26780Y35122D01*
M02*
