G04*
G04 #@! TF.GenerationSoftware,Altium Limited,Altium Designer,25.0.2 (28)*
G04*
G04 Layer_Color=32768*
%FSLAX24Y24*%
%MOIN*%
G70*
G04*
G04 #@! TF.SameCoordinates,81A3336F-67A3-4ED7-803A-E09BC6C04D2E*
G04*
G04*
G04 #@! TF.FilePolarity,Positive*
G04*
G01*
G75*
%ADD11C,0.0100*%
%ADD12C,0.0079*%
D11*
X24116Y37903D02*
G03*
X24116Y37903I-1119J0D01*
G01*
Y19620D02*
G03*
X24116Y19620I-1119J0D01*
G01*
X54666D02*
G03*
X54666Y19620I-1119J0D01*
G01*
Y37903D02*
G03*
X54666Y37903I-1119J0D01*
G01*
X22878D02*
X23115D01*
X22996Y37785D02*
Y38022D01*
X22878Y19620D02*
X23115D01*
X22996Y19502D02*
Y19738D01*
X53429Y19620D02*
X53665D01*
X53547Y19502D02*
Y19738D01*
Y37785D02*
Y38022D01*
X53429Y37903D02*
X53665D01*
D12*
X29311Y18472D02*
Y23990D01*
Y18472D02*
X33389D01*
Y23990D01*
X29311D02*
X33389D01*
X24861D02*
X28939D01*
Y18472D02*
Y23990D01*
X24861Y18472D02*
X28939D01*
X24861D02*
Y23990D01*
X45424Y22854D02*
X48376D01*
Y19546D02*
Y22854D01*
X45424Y19546D02*
X48376D01*
X45424D02*
Y22854D01*
X48956Y20186D02*
X49744D01*
X48956Y19714D02*
Y20186D01*
X49744Y19714D02*
Y20186D01*
X48956Y19714D02*
X49744D01*
X49260Y30711D02*
Y34789D01*
X54778D01*
Y30711D02*
Y34789D01*
X49260Y30711D02*
X54778D01*
X35606Y21864D02*
X36394D01*
Y22336D01*
X35606Y21864D02*
Y22336D01*
X36394D01*
X48386Y31306D02*
Y32094D01*
X47914D02*
X48386D01*
X47914Y31306D02*
X48386D01*
X47914D02*
Y32094D01*
X50206Y37964D02*
X50994D01*
Y38436D01*
X50206Y37964D02*
Y38436D01*
X50994D01*
X50156Y36764D02*
X50944D01*
Y37236D01*
X50156Y36764D02*
Y37236D01*
X50944D01*
X37956Y33964D02*
X38744D01*
Y34436D01*
X37956Y33964D02*
Y34436D01*
X38744D01*
X42406Y23464D02*
X43194D01*
Y23936D01*
X42406Y23464D02*
Y23936D01*
X43194D01*
X34636Y23056D02*
Y23844D01*
X34164D02*
X34636D01*
X34164Y23056D02*
X34636D01*
X34164D02*
Y23844D01*
X31006Y30714D02*
X31794D01*
Y31186D01*
X31006Y30714D02*
Y31186D01*
X31794D01*
X29456Y27328D02*
Y29572D01*
X30244D01*
Y27328D02*
Y29572D01*
X29456Y27328D02*
X30244D01*
X39893Y32781D02*
X41407D01*
X39893D02*
Y34119D01*
X41407D01*
Y32781D02*
Y34119D01*
X26506Y36486D02*
X27294D01*
X26506Y36014D02*
Y36486D01*
X27294Y36014D02*
Y36486D01*
X26506Y36014D02*
X27294D01*
X39486Y20406D02*
Y21194D01*
X39014D02*
X39486D01*
X39014Y20406D02*
X39486D01*
X39014D02*
Y21194D01*
X34993Y22781D02*
X36507D01*
X34993D02*
Y24119D01*
X36507D01*
Y22781D02*
Y24119D01*
X43953Y20252D02*
Y21948D01*
X42947Y20252D02*
X43953D01*
X42947D02*
Y21948D01*
X43953D01*
X26230Y27241D02*
Y31059D01*
X28670D01*
Y27241D02*
Y31059D01*
X26230Y27241D02*
X28670D01*
X45615Y35295D02*
Y38602D01*
Y35295D02*
X48568D01*
Y38602D01*
X45615D02*
X48568D01*
X44197Y37748D02*
X45203D01*
X44197Y36052D02*
Y37748D01*
Y36052D02*
X45203D01*
Y37748D01*
X49260Y23461D02*
X54778D01*
Y27539D01*
X49260D02*
X54778D01*
X49260Y23461D02*
Y27539D01*
X25793Y34331D02*
Y35669D01*
Y34331D02*
X27307D01*
Y35669D01*
X25793D02*
X27307D01*
X32328Y24606D02*
Y25394D01*
Y24606D02*
X34572D01*
Y25394D01*
X32328D02*
X34572D01*
X29331Y32507D02*
X30669D01*
X29331Y30993D02*
Y32507D01*
Y30993D02*
X30669D01*
Y32507D01*
X30878Y26729D02*
X31822D01*
Y27871D01*
X30878D02*
X31822D01*
X30878Y26729D02*
Y27871D01*
X34940Y24675D02*
Y25325D01*
Y24675D02*
X36160D01*
Y25325D01*
X34940D02*
X36160D01*
X30540Y28925D02*
Y29575D01*
Y28925D02*
X31760D01*
Y29575D01*
X30540D02*
X31760D01*
M02*
