G04*
G04 #@! TF.GenerationSoftware,Altium Limited,Altium Designer,25.0.2 (28)*
G04*
G04 Layer_Physical_Order=2*
G04 Layer_Color=16711680*
%FSLAX24Y24*%
%MOIN*%
G70*
G04*
G04 #@! TF.SameCoordinates,81A3336F-67A3-4ED7-803A-E09BC6C04D2E*
G04*
G04*
G04 #@! TF.FilePolarity,Positive*
G04*
G01*
G75*
%ADD11C,0.0100*%
%ADD51R,0.0701X0.0902*%
%ADD57R,0.0902X0.0701*%
%ADD60C,0.0300*%
%ADD61C,0.0170*%
%ADD62C,0.0630*%
%ADD63R,0.0630X0.0630*%
%ADD64C,0.0610*%
%ADD65R,0.0610X0.0610*%
%ADD66C,0.0600*%
%ADD67C,0.1181*%
%ADD68C,0.2461*%
%ADD69C,0.0632*%
%ADD70C,0.1201*%
%ADD71R,0.0632X0.0632*%
%ADD72R,0.0632X0.0632*%
%ADD73C,0.0500*%
%ADD74C,0.0197*%
D11*
X31316Y36011D02*
G03*
X31244Y35938I280J-353D01*
G01*
X42784Y35407D02*
X42979Y35212D01*
X42373Y34755D02*
Y34863D01*
X41773Y34507D02*
X41900Y34379D01*
X42175Y35061D02*
X42373Y34863D01*
X41500Y30122D02*
Y34214D01*
X42279Y34355D02*
X43150Y33484D01*
X41370Y34344D02*
Y34502D01*
X41900Y34150D02*
Y34379D01*
X41752Y34948D02*
X41773Y34927D01*
X41370Y34344D02*
X41500Y34214D01*
X41573Y34424D02*
Y34844D01*
X42684Y35321D02*
X42723Y35360D01*
X41773Y34507D02*
Y34927D01*
X41973Y34589D02*
Y35042D01*
X42175Y35061D02*
Y35567D01*
X42749Y35334D02*
Y35386D01*
X41973Y34589D02*
X42207Y34355D01*
X41700Y33634D02*
Y34297D01*
X42207Y34355D02*
X42279D01*
X41573Y34424D02*
X41700Y34297D01*
X41552Y34865D02*
X41573Y34844D01*
X42684Y35268D02*
Y35321D01*
X41552Y34865D02*
Y34994D01*
X41752Y34948D02*
Y35077D01*
X41318Y35229D02*
X41552Y34994D01*
X41152Y34720D02*
Y34829D01*
Y34720D02*
X41370Y34502D01*
X42784Y35422D02*
X42796Y35410D01*
X41952Y35063D02*
X41973Y35042D01*
X42979Y35212D02*
X42994D01*
X43008Y35432D02*
X45453D01*
X42400Y35683D02*
Y36166D01*
Y35683D02*
X42723Y35360D01*
X42749Y35386D02*
X42784Y35422D01*
X42796Y35410D02*
X42986D01*
X43008Y35432D01*
X42994Y35212D02*
X45106Y33100D01*
X42066Y36500D02*
X42400Y36166D01*
X41952Y35063D02*
Y35160D01*
X43150Y32950D02*
Y33484D01*
X41400Y35429D02*
X41752Y35077D01*
X41950Y35792D02*
X42175Y35567D01*
X41483Y35629D02*
X41952Y35160D01*
X41950Y35792D02*
Y35900D01*
X41005Y36103D02*
X41480Y35629D01*
X40550Y35075D02*
X40903Y35429D01*
X40750Y34992D02*
X40986Y35229D01*
X40903Y35429D02*
X41400D01*
X40986Y35229D02*
X41318D01*
X41480Y35629D02*
X41483D01*
X40750Y31650D02*
Y34992D01*
X40260Y36103D02*
X41005D01*
X40550Y33094D02*
Y35075D01*
X41900Y34150D02*
X42650Y33400D01*
X39379Y29793D02*
X39586Y30000D01*
X39270Y29793D02*
X39379D01*
X37934Y29200D02*
X39645Y30911D01*
X39586Y30000D02*
X40100D01*
X39645Y31811D02*
Y32189D01*
X39791Y31334D02*
Y31666D01*
X37750Y30576D02*
X39966Y32792D01*
X39645Y30911D02*
Y31189D01*
X39791Y31334D01*
X39645Y31811D02*
X39791Y31666D01*
X39645Y32189D02*
X40550Y33094D01*
X40100Y30000D02*
X40800Y29300D01*
X41550D01*
X41600Y29350D01*
X41500Y30122D02*
X42028Y29595D01*
X45453Y35432D02*
X45512Y35374D01*
Y35273D02*
Y35374D01*
X45106Y33100D02*
X45750D01*
X40374Y36500D02*
X42066D01*
X39738Y35864D02*
X40374Y36500D01*
X39987Y35830D02*
X40260Y36103D01*
X39987Y35444D02*
Y35830D01*
X39738Y35444D02*
Y35864D01*
X39550Y34048D02*
Y34650D01*
X34750Y34750D02*
X39044D01*
X39500Y34450D02*
Y34600D01*
X39242Y33637D02*
X39277Y33673D01*
X39044Y34750D02*
X39738Y35444D01*
X39500Y34600D02*
X39550Y34650D01*
X39300Y33798D02*
X39550Y34048D01*
X39987Y35444D02*
X40350Y35081D01*
Y34221D02*
Y35081D01*
X40100Y31000D02*
X40750Y31650D01*
X41700Y33634D02*
X42550Y32784D01*
X37851Y29200D02*
X37934D01*
X36027Y31108D02*
X37793Y29342D01*
Y29258D02*
X37851Y29200D01*
X37793Y29258D02*
Y29342D01*
X46126Y26974D02*
X46197Y26903D01*
X42550Y30134D02*
X45660Y27024D01*
X45747D01*
X45797Y26974D02*
X46126D01*
X45747Y27024D02*
X45797Y26974D01*
X38579Y34300D02*
X39229Y33650D01*
X39300D01*
X45750Y34945D02*
Y35034D01*
X45512Y35273D02*
X45750Y35034D01*
X33401Y34300D02*
X38579D01*
X39300Y33650D02*
Y33798D01*
X36850Y22250D02*
X37277Y22677D01*
X37577D01*
X37750Y21850D02*
X38300Y22400D01*
X35100Y21850D02*
X37750D01*
X34425Y22525D02*
X35100Y21850D01*
X34275Y22525D02*
X34425D01*
X37577Y22677D02*
X37750Y22850D01*
X45857Y31993D02*
X45928D01*
X46171Y31750D01*
X46250D01*
X45750Y32100D02*
X45857Y31993D01*
X46250Y31150D02*
Y31750D01*
X44650Y29550D02*
X46250Y31150D01*
X45750Y32100D02*
Y33100D01*
X44050Y29550D02*
X44650D01*
X29035Y25935D02*
X29105Y26005D01*
X34275Y22525D02*
X34350Y22600D01*
X32625Y24175D02*
X34275Y22525D01*
X25327Y26714D02*
X26636D01*
X26700Y26650D01*
X25263Y26778D02*
X25327Y26714D01*
X26800Y29825D02*
X29000Y27625D01*
Y25969D02*
Y27625D01*
Y25969D02*
X29035Y25935D01*
X37750Y22850D02*
X38386D01*
X29000Y25900D02*
X30725Y24175D01*
X32625D01*
X39845Y27255D02*
X40100Y27000D01*
X38227Y28643D02*
X39614Y27255D01*
X39845D01*
X40325Y26937D02*
X40355Y26967D01*
X40325Y26775D02*
Y26937D01*
X32778Y28522D02*
X33550Y27750D01*
X32778Y28522D02*
Y28550D01*
X32309Y29916D02*
X32800Y29425D01*
Y29350D02*
Y29425D01*
X33550Y27750D02*
X37400D01*
X29050Y30750D02*
X29100Y30700D01*
X29800D01*
X32309Y29991D02*
X32434D01*
X32309Y29916D02*
Y29991D01*
X43150Y32950D02*
X43400Y32700D01*
X44105Y19900D02*
X44380Y20175D01*
X42500Y19900D02*
X44105D01*
X44450Y20150D02*
X46257D01*
X44380Y20175D02*
X44425D01*
X46257Y20150D02*
X46506Y19901D01*
X26400Y33500D02*
X30074D01*
X31051Y34477D01*
Y35113D02*
X31596Y35658D01*
X31051Y34477D02*
Y35113D01*
X24450Y34750D02*
X26800Y32400D01*
X43400Y32700D02*
X44850D01*
X26800Y29825D02*
Y31550D01*
X41000Y26200D02*
X42028Y27228D01*
Y29595D01*
X40426Y24560D02*
X42228Y26362D01*
X42150Y30803D02*
X42228Y30725D01*
Y26362D02*
Y30725D01*
X42150Y30803D02*
Y32207D01*
X42550Y30134D02*
Y32784D01*
X39966Y33837D02*
X40350Y34221D01*
X39966Y32792D02*
Y33837D01*
X26150Y32225D02*
Y32250D01*
X26800Y31550D02*
Y31575D01*
X26150Y32225D02*
X26800Y31575D01*
Y32400D02*
X27550Y31650D01*
X24450Y35400D02*
X24500Y35450D01*
X24450Y34750D02*
Y35400D01*
X37700Y18950D02*
X39350D01*
X40300Y19900D01*
X31345Y36034D02*
X31562Y36250D01*
X31316Y36011D02*
X31345Y36034D01*
X31221Y35909D02*
X31244Y35938D01*
X36296Y36250D02*
X36326Y36221D01*
X31562Y36250D02*
X36296D01*
X30960Y35648D02*
X31221Y35909D01*
X36326Y36221D02*
X36909Y35637D01*
X31000Y32500D02*
X32500Y34000D01*
X30934Y32434D02*
X31000Y32500D01*
X26800Y32400D02*
X27900D01*
X27950Y32450D01*
X35827Y31025D02*
Y31323D01*
X36027Y31108D02*
Y31805D01*
X35827Y31025D02*
X37593Y29259D01*
X37750Y29950D02*
Y30576D01*
X37593Y28994D02*
Y29259D01*
X33101Y34000D02*
X33401Y34300D01*
X30415Y35648D02*
X30960D01*
X38550Y25700D02*
X41000D01*
X33550Y33600D02*
X33608Y33658D01*
X31250Y31866D02*
X33442Y34058D01*
X33774D02*
X36027Y31805D01*
X33442Y34058D02*
X33774D01*
X31650Y31684D02*
Y31700D01*
X37944Y28643D02*
X38227D01*
X30934Y32100D02*
Y32434D01*
X37593Y28994D02*
X37944Y28643D01*
X30850Y32016D02*
X30934Y32100D01*
X31650Y31700D02*
X33550Y33600D01*
X30850Y31750D02*
Y32016D01*
X29800Y30700D02*
X30850Y31750D01*
X32500Y34000D02*
X33101D01*
X33550Y33600D02*
X35827Y31323D01*
X31416Y31450D02*
X31650Y31684D01*
X39681Y26131D02*
X40325Y26775D01*
X31250Y31850D02*
Y31866D01*
X29350Y29400D02*
X31400Y31450D01*
X31416D01*
X28250Y29400D02*
X29350D01*
X37216Y24668D02*
Y25016D01*
X37484Y24400D02*
X38050D01*
X38500Y24850D01*
X37216Y24668D02*
X37484Y24400D01*
X37216Y25016D02*
X38331Y26131D01*
X39681D01*
X37650Y24800D02*
X38550Y25700D01*
X41000D02*
Y26200D01*
X39824Y24560D02*
X40426D01*
X38850Y23586D02*
X39824Y24560D01*
X38386Y22850D02*
X38850Y23314D01*
Y23586D01*
D51*
X30350Y23500D02*
D03*
X31350D02*
D03*
X32350D02*
D03*
X27900D02*
D03*
X26900D02*
D03*
X25900D02*
D03*
D57*
X49750Y33750D02*
D03*
Y32750D02*
D03*
Y31750D02*
D03*
Y24500D02*
D03*
Y25500D02*
D03*
Y26500D02*
D03*
D60*
X41950Y21550D02*
X43000Y22600D01*
X27611Y25084D02*
X31145Y21550D01*
X41950D01*
X27611Y25084D02*
Y26792D01*
X25263Y29141D02*
X27611Y26792D01*
D61*
X49650Y35950D02*
Y36900D01*
X47550Y33850D02*
X49650Y35950D01*
D62*
X47100Y31000D02*
D03*
Y30000D02*
D03*
Y29000D02*
D03*
D63*
Y28000D02*
D03*
D64*
X40100Y32000D02*
D03*
Y31000D02*
D03*
Y28000D02*
D03*
Y29000D02*
D03*
Y30000D02*
D03*
D65*
Y27000D02*
D03*
D66*
X31596Y35658D02*
D03*
Y34477D02*
D03*
X30415Y35658D02*
D03*
Y34477D02*
D03*
X29234Y35658D02*
D03*
Y34477D02*
D03*
X40300Y23400D02*
D03*
Y22400D02*
D03*
X38300D02*
D03*
X39300D02*
D03*
X38300Y23400D02*
D03*
X39300D02*
D03*
D67*
X30415Y37359D02*
D03*
D68*
X22996Y37903D02*
D03*
Y19620D02*
D03*
X53547D02*
D03*
Y37903D02*
D03*
D69*
X25263Y31503D02*
D03*
Y30322D02*
D03*
Y29141D02*
D03*
Y27959D02*
D03*
Y26778D02*
D03*
X35728Y35637D02*
D03*
X36909D02*
D03*
X38091D02*
D03*
X39272D02*
D03*
X40453D02*
D03*
D70*
X23562Y26444D02*
D03*
Y30656D02*
D03*
X39606Y37338D02*
D03*
X35394D02*
D03*
D71*
X25263Y25597D02*
D03*
D72*
X34547Y35637D02*
D03*
D73*
X42373Y34755D02*
D03*
X42684Y35268D02*
D03*
X41152Y34829D02*
D03*
X41950Y35900D02*
D03*
X39270Y29793D02*
D03*
X39550Y34650D02*
D03*
X42650Y33400D02*
D03*
X46197Y26903D02*
D03*
X42950Y24600D02*
D03*
X39242Y33637D02*
D03*
X45750Y34945D02*
D03*
X36850Y22250D02*
D03*
X46250Y31750D02*
D03*
X45750Y33100D02*
D03*
X34350Y22600D02*
D03*
X29105Y26005D02*
D03*
X26700Y26650D02*
D03*
X32778Y28550D02*
D03*
X32800Y29350D02*
D03*
X29050Y30750D02*
D03*
X32309Y29991D02*
D03*
X37400Y27750D02*
D03*
X44425Y20175D02*
D03*
X26400Y33500D02*
D03*
X44850Y32700D02*
D03*
X34750Y34750D02*
D03*
X41600Y29350D02*
D03*
X44050Y29550D02*
D03*
X47550Y33850D02*
D03*
X26150Y32250D02*
D03*
X26800Y31550D02*
D03*
X27550Y31650D02*
D03*
X42500Y19900D02*
D03*
X24500Y35450D02*
D03*
X37700Y18950D02*
D03*
X40300Y19900D02*
D03*
X43000Y22600D02*
D03*
X27950Y32450D02*
D03*
X37750Y29950D02*
D03*
X42150Y32207D02*
D03*
X41000Y25700D02*
D03*
X49650Y36900D02*
D03*
X33608Y33658D02*
D03*
X31000Y32500D02*
D03*
X31250Y31850D02*
D03*
X38500Y24850D02*
D03*
X37650Y24800D02*
D03*
X28250Y29400D02*
D03*
D74*
X46506Y22499D02*
D03*
Y22066D02*
D03*
Y21633D02*
D03*
Y21200D02*
D03*
Y20767D02*
D03*
Y20334D02*
D03*
Y19901D02*
D03*
X47294Y22499D02*
D03*
Y22066D02*
D03*
Y21633D02*
D03*
Y21200D02*
D03*
Y20767D02*
D03*
Y20334D02*
D03*
Y19901D02*
D03*
X46900Y22499D02*
D03*
Y22066D02*
D03*
Y21633D02*
D03*
Y21200D02*
D03*
Y20767D02*
D03*
Y20334D02*
D03*
Y19901D02*
D03*
X47092Y35649D02*
D03*
Y36082D02*
D03*
Y36515D02*
D03*
Y36948D02*
D03*
Y37381D02*
D03*
Y37815D02*
D03*
Y38248D02*
D03*
X47485Y35649D02*
D03*
Y36082D02*
D03*
Y36515D02*
D03*
Y36948D02*
D03*
Y37381D02*
D03*
Y37815D02*
D03*
Y38248D02*
D03*
X46698Y35649D02*
D03*
Y36082D02*
D03*
Y36515D02*
D03*
Y36948D02*
D03*
Y37381D02*
D03*
Y37815D02*
D03*
Y38248D02*
D03*
M02*
