G04*
G04 #@! TF.GenerationSoftware,Altium Limited,Altium Designer,25.0.2 (28)*
G04*
G04 Layer_Color=12632256*
%FSLAX24Y24*%
%MOIN*%
G70*
G04*
G04 #@! TF.SameCoordinates,81A3336F-67A3-4ED7-803A-E09BC6C04D2E*
G04*
G04*
G04 #@! TF.FilePolarity,Positive*
G04*
G01*
G75*
%ADD51R,0.0701X0.0902*%
%ADD57R,0.0902X0.0701*%
%ADD62C,0.0630*%
%ADD63R,0.0630X0.0630*%
%ADD64C,0.0610*%
%ADD65R,0.0610X0.0610*%
%ADD66C,0.0600*%
%ADD67C,0.1181*%
%ADD68C,0.2461*%
%ADD69C,0.0632*%
%ADD70C,0.1201*%
%ADD71R,0.0632X0.0632*%
%ADD72R,0.0632X0.0632*%
D51*
X30350Y23500D02*
D03*
X31350D02*
D03*
X32350D02*
D03*
X27900D02*
D03*
X26900D02*
D03*
X25900D02*
D03*
D57*
X49750Y33750D02*
D03*
Y32750D02*
D03*
Y31750D02*
D03*
Y24500D02*
D03*
Y25500D02*
D03*
Y26500D02*
D03*
D62*
X47100Y31000D02*
D03*
Y30000D02*
D03*
Y29000D02*
D03*
D63*
Y28000D02*
D03*
D64*
X40100Y32000D02*
D03*
Y31000D02*
D03*
Y28000D02*
D03*
Y29000D02*
D03*
Y30000D02*
D03*
D65*
Y27000D02*
D03*
D66*
X31596Y35658D02*
D03*
Y34477D02*
D03*
X30415Y35658D02*
D03*
Y34477D02*
D03*
X29234Y35658D02*
D03*
Y34477D02*
D03*
X40300Y23400D02*
D03*
Y22400D02*
D03*
X38300D02*
D03*
X39300D02*
D03*
X38300Y23400D02*
D03*
X39300D02*
D03*
D67*
X30415Y37359D02*
D03*
D68*
X22996Y37903D02*
D03*
Y19620D02*
D03*
X53547D02*
D03*
Y37903D02*
D03*
D69*
X25263Y31503D02*
D03*
Y30322D02*
D03*
Y29141D02*
D03*
Y27959D02*
D03*
Y26778D02*
D03*
X35728Y35637D02*
D03*
X36909D02*
D03*
X38091D02*
D03*
X39272D02*
D03*
X40453D02*
D03*
D70*
X23562Y26444D02*
D03*
Y30656D02*
D03*
X39606Y37338D02*
D03*
X35394D02*
D03*
D71*
X25263Y25597D02*
D03*
D72*
X34547Y35637D02*
D03*
M02*
