G04*
G04 #@! TF.GenerationSoftware,Altium Limited,Altium Designer,25.0.2 (28)*
G04*
G04 Layer_Color=8421504*
%FSLAX24Y24*%
%MOIN*%
G70*
G04*
G04 #@! TF.SameCoordinates,81A3336F-67A3-4ED7-803A-E09BC6C04D2E*
G04*
G04*
G04 #@! TF.FilePolarity,Positive*
G04*
G01*
G75*
%ADD16R,0.0531X0.0374*%
G04:AMPARAMS|DCode=17|XSize=59.1mil|YSize=17.7mil|CornerRadius=1.9mil|HoleSize=0mil|Usage=FLASHONLY|Rotation=0.000|XOffset=0mil|YOffset=0mil|HoleType=Round|Shape=RoundedRectangle|*
%AMROUNDEDRECTD17*
21,1,0.0591,0.0138,0,0,0.0*
21,1,0.0552,0.0177,0,0,0.0*
1,1,0.0039,0.0276,-0.0069*
1,1,0.0039,-0.0276,-0.0069*
1,1,0.0039,-0.0276,0.0069*
1,1,0.0039,0.0276,0.0069*
%
%ADD17ROUNDEDRECTD17*%
%ADD18R,0.0709X0.0394*%
%ADD19R,0.0394X0.0709*%
%ADD20R,0.0591X0.0689*%
%ADD21R,0.0600X0.0228*%
G04:AMPARAMS|DCode=22|XSize=60mil|YSize=22.8mil|CornerRadius=11.4mil|HoleSize=0mil|Usage=FLASHONLY|Rotation=180.000|XOffset=0mil|YOffset=0mil|HoleType=Round|Shape=RoundedRectangle|*
%AMROUNDEDRECTD22*
21,1,0.0600,0.0000,0,0,180.0*
21,1,0.0373,0.0228,0,0,180.0*
1,1,0.0228,-0.0186,0.0000*
1,1,0.0228,0.0186,0.0000*
1,1,0.0228,0.0186,0.0000*
1,1,0.0228,-0.0186,0.0000*
%
%ADD22ROUNDEDRECTD22*%
%ADD23R,0.0613X0.0612*%
%ADD24R,0.0512X0.0610*%
%ADD25R,0.0374X0.0531*%
%ADD26R,0.0472X0.0551*%
%ADD27R,0.0551X0.0591*%
%ADD28R,0.0394X0.1496*%
%ADD29R,0.4094X0.3661*%
%ADD30O,0.0217X0.0531*%
%ADD31O,0.0531X0.0217*%
%ADD32R,0.0689X0.0591*%
G04:AMPARAMS|DCode=33|XSize=60mil|YSize=22.8mil|CornerRadius=11.4mil|HoleSize=0mil|Usage=FLASHONLY|Rotation=270.000|XOffset=0mil|YOffset=0mil|HoleType=Round|Shape=RoundedRectangle|*
%AMROUNDEDRECTD33*
21,1,0.0600,0.0000,0,0,270.0*
21,1,0.0373,0.0228,0,0,270.0*
1,1,0.0228,0.0000,-0.0186*
1,1,0.0228,0.0000,0.0186*
1,1,0.0228,0.0000,0.0186*
1,1,0.0228,0.0000,-0.0186*
%
%ADD33ROUNDEDRECTD33*%
%ADD34R,0.0228X0.0600*%
%ADD35R,0.0866X0.0453*%
%ADD36R,0.0374X0.0571*%
G36*
X47372Y20204D02*
Y20200D01*
X47369Y20193D01*
X47364Y20187D01*
X47357Y20184D01*
X47353D01*
D01*
X46447D01*
X46443D01*
X46436Y20187D01*
X46431Y20193D01*
X46428Y20200D01*
Y20204D01*
D01*
Y22196D01*
Y22200D01*
X46431Y22207D01*
X46436Y22213D01*
X46443Y22216D01*
X46447D01*
D01*
X47353D01*
X47357D01*
X47364Y22213D01*
X47369Y22207D01*
X47372Y22200D01*
Y22196D01*
D01*
Y20204D01*
D02*
G37*
G36*
X47564Y35952D02*
Y35948D01*
X47561Y35941D01*
X47556Y35936D01*
X47548Y35933D01*
X47544D01*
D01*
X46639D01*
X46635D01*
X46628Y35936D01*
X46622Y35941D01*
X46619Y35948D01*
Y35952D01*
D01*
Y37944D01*
Y37948D01*
X46622Y37956D01*
X46628Y37961D01*
X46635Y37964D01*
X46639D01*
D01*
X47544D01*
X47548D01*
X47556Y37961D01*
X47561Y37956D01*
X47564Y37948D01*
Y37944D01*
D01*
Y35952D01*
D02*
G37*
D16*
X41589Y20900D02*
D03*
X41900Y33295D02*
D03*
Y33905D02*
D03*
X28650Y32105D02*
D03*
Y31495D02*
D03*
X25250Y34695D02*
D03*
Y35305D02*
D03*
X31950Y32150D02*
D03*
Y32760D02*
D03*
X42500Y21155D02*
D03*
Y20545D02*
D03*
X37950Y32760D02*
D03*
Y32150D02*
D03*
X35250Y32760D02*
D03*
Y32150D02*
D03*
X49350Y37745D02*
D03*
Y38355D02*
D03*
X43900Y35145D02*
D03*
Y35755D02*
D03*
X46750Y33055D02*
D03*
Y32445D02*
D03*
X43700Y38000D02*
D03*
Y37390D02*
D03*
X44650Y35145D02*
D03*
Y35755D02*
D03*
Y20795D02*
D03*
Y21405D02*
D03*
X44350Y23005D02*
D03*
Y22395D02*
D03*
X40750Y21055D02*
D03*
Y20445D02*
D03*
X41589Y20290D02*
D03*
X38950Y32755D02*
D03*
Y32145D02*
D03*
X36950Y24595D02*
D03*
Y25205D02*
D03*
X32400Y26855D02*
D03*
Y26245D02*
D03*
X37450Y26145D02*
D03*
Y26755D02*
D03*
X36500Y26145D02*
D03*
Y26755D02*
D03*
X35550Y26145D02*
D03*
Y26755D02*
D03*
X34550Y26140D02*
D03*
Y26750D02*
D03*
X33300Y26245D02*
D03*
Y26855D02*
D03*
X32750Y32755D02*
D03*
Y32145D02*
D03*
X34400Y32755D02*
D03*
Y32145D02*
D03*
X36150Y32760D02*
D03*
Y32150D02*
D03*
X37000Y32760D02*
D03*
Y32150D02*
D03*
X33600Y32755D02*
D03*
Y32145D02*
D03*
X37150Y23095D02*
D03*
Y23705D02*
D03*
X29850Y26655D02*
D03*
Y26045D02*
D03*
D17*
X45758Y22607D02*
D03*
Y22352D02*
D03*
Y22096D02*
D03*
Y21840D02*
D03*
Y21584D02*
D03*
Y21328D02*
D03*
Y21072D02*
D03*
Y20816D02*
D03*
Y20560D02*
D03*
Y20304D02*
D03*
Y20048D02*
D03*
Y19793D02*
D03*
X48042D02*
D03*
Y20048D02*
D03*
Y20304D02*
D03*
Y20560D02*
D03*
Y20816D02*
D03*
Y21072D02*
D03*
Y21328D02*
D03*
Y21584D02*
D03*
Y21840D02*
D03*
Y22096D02*
D03*
Y22352D02*
D03*
Y22607D02*
D03*
X48233Y38356D02*
D03*
Y38100D02*
D03*
Y37844D02*
D03*
Y37588D02*
D03*
Y37332D02*
D03*
Y37076D02*
D03*
Y36820D02*
D03*
Y36565D02*
D03*
Y36309D02*
D03*
Y36053D02*
D03*
Y35797D02*
D03*
Y35541D02*
D03*
X45950D02*
D03*
Y35797D02*
D03*
Y36053D02*
D03*
Y36309D02*
D03*
Y36565D02*
D03*
Y36820D02*
D03*
Y37076D02*
D03*
Y37332D02*
D03*
Y37588D02*
D03*
Y37844D02*
D03*
Y38100D02*
D03*
Y38356D02*
D03*
D18*
X49350Y19950D02*
D03*
X36000Y22100D02*
D03*
X50600Y38200D02*
D03*
X50550Y37000D02*
D03*
X38350Y34200D02*
D03*
X42800Y23700D02*
D03*
X31400Y30950D02*
D03*
X26900Y36250D02*
D03*
D19*
X48150Y31700D02*
D03*
X34400Y23450D02*
D03*
X39250Y20800D02*
D03*
D20*
X29850Y27712D02*
D03*
Y29188D02*
D03*
D21*
X41008Y33076D02*
D03*
X36108Y23076D02*
D03*
X26192Y35374D02*
D03*
D22*
X41008Y33824D02*
D03*
X40292Y33450D02*
D03*
X36108Y23824D02*
D03*
X35392Y23450D02*
D03*
X26908Y35000D02*
D03*
X26192Y34626D02*
D03*
D23*
X43450Y21445D02*
D03*
Y20755D02*
D03*
X44700Y36555D02*
D03*
Y37245D02*
D03*
D24*
X26564Y27585D02*
D03*
Y30715D02*
D03*
X28336Y27585D02*
D03*
Y30715D02*
D03*
D25*
X39005Y30500D02*
D03*
X38395D02*
D03*
X38402Y27200D02*
D03*
X39013D02*
D03*
X43805Y36550D02*
D03*
X43195D02*
D03*
X45050Y38400D02*
D03*
X44440D02*
D03*
X46495Y24650D02*
D03*
X47105D02*
D03*
X43145Y19850D02*
D03*
X43755D02*
D03*
X29495Y30100D02*
D03*
X30105D02*
D03*
X27745Y26650D02*
D03*
X28355D02*
D03*
X27905Y33350D02*
D03*
X27295D02*
D03*
X31545Y28350D02*
D03*
X32155D02*
D03*
X42895Y31900D02*
D03*
X43505D02*
D03*
X39005Y26100D02*
D03*
X38395D02*
D03*
X31045Y30050D02*
D03*
X31655D02*
D03*
X39013Y31250D02*
D03*
X38402D02*
D03*
X31555Y26050D02*
D03*
X30945D02*
D03*
D26*
X38165Y29100D02*
D03*
X38835D02*
D03*
D27*
X38176Y28200D02*
D03*
X38924D02*
D03*
X43376Y32850D02*
D03*
X44124D02*
D03*
X43376Y33850D02*
D03*
X44124D02*
D03*
D28*
X42300Y25622D02*
D03*
X44300D02*
D03*
D29*
X43300Y29500D02*
D03*
D30*
X34098Y31034D02*
D03*
X34413D02*
D03*
X34728D02*
D03*
X35043D02*
D03*
X35357D02*
D03*
X35672D02*
D03*
X35987D02*
D03*
X36302D02*
D03*
Y27766D02*
D03*
X35987D02*
D03*
X35672D02*
D03*
X35357D02*
D03*
X35043D02*
D03*
X34728D02*
D03*
X34413D02*
D03*
X34098D02*
D03*
D31*
X36834Y30502D02*
D03*
Y30187D02*
D03*
Y29872D02*
D03*
Y29557D02*
D03*
Y29243D02*
D03*
Y28928D02*
D03*
Y28613D02*
D03*
Y28298D02*
D03*
X33566D02*
D03*
Y28613D02*
D03*
Y28928D02*
D03*
Y29243D02*
D03*
Y29557D02*
D03*
Y29872D02*
D03*
Y30187D02*
D03*
Y30502D02*
D03*
D32*
X34188Y25000D02*
D03*
X32712D02*
D03*
D33*
X30000Y31392D02*
D03*
X29626Y32108D02*
D03*
D34*
X30374D02*
D03*
D35*
X31350Y27605D02*
D03*
Y26995D02*
D03*
D36*
X35934Y25000D02*
D03*
X35166D02*
D03*
X31534Y29250D02*
D03*
X30766D02*
D03*
M02*
